HIERARCHY
ROOT root
{
	OFFSET	0	13.1	24.9
	CHANNELS 6  Xposition Yposition Zposition Xrotation Yrotation Zrotation
	JOINT spine_1
	{
		OFFSET	0	9.99999	0
		CHANNELS 3  Xrotation Yrotation Zrotation
		JOINT spine_2
		{
			OFFSET	0	112	-10
			CHANNELS 3  Xrotation Yrotation Zrotation
			JOINT spine_3
			{
				OFFSET	0	206.5	19.3
				CHANNELS 3  Xrotation Yrotation Zrotation
				JOINT spine_4
				{
					OFFSET	0	110.4	14.6
					CHANNELS 3  Xrotation Yrotation Zrotation
					JOINT neck_1
					{
						OFFSET	0	71.8	-50.3
						CHANNELS 3  Xrotation Yrotation Zrotation
						JOINT neck_2
						{
							OFFSET	0	86.2	-25.8
							CHANNELS 3  Xrotation Yrotation Zrotation
							JOINT head_ee
							{
								OFFSET	0	179.8	-8.7
								CHANNELS 3  Xrotation Yrotation Zrotation
								End Site
								{
									OFFSET	1	0	0
								}
							}
						}
					}
					JOINT left_clavicle
					{
						OFFSET	-43.2	22.4	-70.8
						CHANNELS 3  Xrotation Yrotation Zrotation
						JOINT left_shoulder
						{
							OFFSET	-93.9	-5.79999	48.7
							CHANNELS 3  Xrotation Yrotation Zrotation
							JOINT left_elbow
							{
								OFFSET	-291.4	-30.8	15.2
								CHANNELS 3  Xrotation Yrotation Zrotation
								JOINT left_lowarm_twist
								{
									OFFSET	-110.7	-3.89999	13.6
									CHANNELS 3  Xrotation Yrotation Zrotation
									JOINT left_hand
									{
										OFFSET	-110.7	-3.89999	13.6
										CHANNELS 3  Xrotation Yrotation Zrotation
										JOINT left_ee
										{
											OFFSET	-80.8	-5.10001	12.1
											CHANNELS 3  Xrotation Yrotation Zrotation
											End Site
											{
												OFFSET	1	0	0
											}
										}
									}
								}
							}
						}
					}
					JOINT right_clavicle
					{
						OFFSET	43.2	22.4	-70.8
						CHANNELS 3  Xrotation Yrotation Zrotation
						JOINT right_shoulder
						{
							OFFSET	93.9	-5.79999	48.7
							CHANNELS 3  Xrotation Yrotation Zrotation
							JOINT right_elbow
							{
								OFFSET	291.4	-30.8	15.2
								CHANNELS 3  Xrotation Yrotation Zrotation
								JOINT right_lowarm_twist
								{
									OFFSET	110.7	-3.89999	13.6
									CHANNELS 3  Xrotation Yrotation Zrotation
									JOINT right_hand
									{
										OFFSET	110.7	-3.89999	13.6
										CHANNELS 3  Xrotation Yrotation Zrotation
										JOINT right_ee
										{
											OFFSET	80.8	-5.10001	12.1
											CHANNELS 3  Xrotation Yrotation Zrotation
											End Site
											{
												OFFSET	1	0	0
											}
										}
									}
								}
							}
						}
					}
				}
			}
		}
	}
	JOINT left_hip
	{
		OFFSET	-82.8	-127.5	0.300001
		CHANNELS 3  Xrotation Yrotation Zrotation
		JOINT left_knee
		{
			OFFSET	-28.2	-396.7	2.2
			CHANNELS 3  Xrotation Yrotation Zrotation
			JOINT left_ankle
			{
				OFFSET	-11.7	-411.3	35.4
				CHANNELS 3  Xrotation Yrotation Zrotation
				JOINT left_toes
				{
					OFFSET	0	-60	-88.6
					CHANNELS 3  Xrotation Yrotation Zrotation
					JOINT left_foot_ee
					{
						OFFSET	-22.5	-16.5	-42.2
						CHANNELS 3  Xrotation Yrotation Zrotation
						End Site
						{
							OFFSET	1	0	0
						}
					}
				}
			}
		}
	}
	JOINT right_hip
	{
		OFFSET	82.8	-127.5	0.300001
		CHANNELS 3  Xrotation Yrotation Zrotation
		JOINT right_knee
		{
			OFFSET	28.2	-396.7	2.2
			CHANNELS 3  Xrotation Yrotation Zrotation
			JOINT right_ankle
			{
				OFFSET	11.7	-411.3	35.4
				CHANNELS 3  Xrotation Yrotation Zrotation
				JOINT right_toes
				{
					OFFSET	0	-60	-88.6
					CHANNELS 3  Xrotation Yrotation Zrotation
					JOINT right_foot_ee
					{
						OFFSET	22.5	-16.5	-42.2
						CHANNELS 3  Xrotation Yrotation Zrotation
						End Site
						{
							OFFSET	1	0	0
						}
					}
				}
			}
		}
	}
}
MOTION
Frames: 13
Frame Time: 0.02
3177.02 653.055 -1669.29 -19.6969640059 54.1880288064 16.740693372 4.27312 0.521537 0.525718 4.27314 0.487028 0.557839 4.27787 0.406248 0.619146 4.27768 0.49893 0.547219 -22.7559 11.723 0.940497 -23.6686 22.1739 6.56623 -0.0 0.0 -0.0 -0.75429 23.6447 1.70666 -34.3175 -9.75718 71.9613 0.489854 -13.6399 0.0585851 -34.5045 -2.38658 3.63869 1.48929 8.00948 13.0988 -0.0 0.0 -0.0 12.7049 22.7101 -25.3389 9.62549 20.433 -58.3784 1.98306 44.4849 -0.811051 78.2596 3.63939 8.50863 2.10156 -4.59015 -15.9676 0.0 0.0 0.0 40.9621 11.767 -8.96118 1.36175 -0.058466 -0.200779 0.903128 -16.6584 -0.14555 4.37869 -0.0 -0.0 -0.0 0.0 -0.0 -1.87798 1.43151 3.40342 -13.509 -0.316487 -2.04419 38.5844 23.8197 5.40303 -13.5039 0.0 0.0 0.0 0.0 0.0 
3082.2451459 646.207 -1677.42683176 -25.4301692125 55.3162952408 22.1427355962 4.3768 0.137309 0.417926 4.37689 0.110437 0.425816 4.37765 0.0519702 0.436823 4.3774 0.120306 0.423134 -8.9065 11.5075 5.00636 -8.91353 18.1256 7.59183 -0.0 0.0 -0.0 0.44246 24.4208 3.41133 -32.9555 -12.1646 68.0517 0.673254 -18.4441 0.109311 -35.4994 -2.48573 3.71905 2.68698 6.02634 20.5614 -0.0 0.0 -0.0 12.6851 24.7258 -25.093 8.88876 15.0887 -57.8262 2.22983 47.8386 -0.989123 74.8574 3.25936 8.29372 1.65392 -7.33422 -13.9507 0.0 0.0 0.0 44.2398 13.5983 -6.77316 -8.97201 0.264135 1.35019 -0.0696995 -1.70719 0.0103631 12.5777 -0.0 -0.0 -0.0 0.0 -0.0 -2.78849 4.74148 5.14835 -13.5222 -0.316559 -2.04622 38.208 19.8961 5.18413 -1.99541 0.0 0.0 0.0 0.0 0.0 
3059.25500347 652.391 -1678.36362067 -26.6867680691 55.2718695944 22.9279204739 4.34108 0.0925117 0.548113 4.34124 0.057447 0.552888 4.34168 -0.0180325 0.555572 4.34126 0.0699347 0.551448 -6.83837 11.8548 5.30302 -6.77249 18.197 7.6688 -0.0 0.0 -0.0 0.606514 24.0448 3.59719 -32.4075 -12.0996 67.3173 0.727761 -19.8248 0.127179 -36.0323 -2.53942 3.76138 2.78467 6.0569 21.2607 -0.0 0.0 -0.0 12.75 24.1621 -25.3019 7.93834 13.9751 -58.0371 2.25377 48.1428 -1.00691 75.3789 3.31677 8.32811 1.49589 -7.77189 -13.0548 0.0 0.0 0.0 44.4285 13.8206 -6.78382 -10.3423 0.285738 1.55933 -0.346737 -2.44181 0.0517116 13.5451 -0.0 -0.0 -0.0 0.0 -0.0 -2.65618 5.00005 6.11453 -13.1765 -0.314519 -1.99322 37.0169 22.7734 5.1981 -1.24351 0.0 0.0 0.0 0.0 0.0 
3059.20549326 652.391 -1677.69636672 -26.8989813169 55.5615928508 23.1856781557 4.34108 0.0925117 0.548113 4.34124 0.057447 0.552888 4.34168 -0.0180325 0.555572 4.34126 0.0699347 0.551448 -6.83837 11.8548 5.30302 -6.77249 18.197 7.6688 -0.0 0.0 -0.0 0.606514 24.0448 3.59719 -32.4075 -12.0996 67.3173 0.727761 -19.8248 0.127179 -36.0323 -2.53942 3.76138 2.78467 6.0569 21.2607 -0.0 0.0 -0.0 12.75 24.1621 -25.3019 7.93834 13.9751 -58.0371 2.25377 48.1428 -1.00691 75.3789 3.31677 8.32811 1.49589 -7.77189 -13.0548 0.0 0.0 0.0 44.4285 13.8206 -6.78382 -10.3423 0.285738 1.55933 -0.346737 -2.44181 0.0517116 13.5451 -0.0 -0.0 -0.0 0.0 -0.0 -2.65618 5.00005 6.11453 -13.1765 -0.314519 -1.99322 37.0169 22.7734 5.1981 -1.24351 0.0 0.0 0.0 0.0 0.0 
3004.81664398 658.006 -1689.87489437 -26.9108557107 57.4628271825 23.4657936314 4.38945 -0.011444 0.664241 4.38969 -0.0536872 0.662166 4.38891 -0.142427 0.648893 4.38832 -0.0381617 0.663242 -6.85648 11.296 6.8127 -6.74374 16.0609 9.05502 -0.0 0.0 -0.0 1.07685 23.3337 4.17829 -26.9274 -14.8081 64.5341 0.901763 -24.0704 0.192258 -36.5807 -2.59508 3.80443 2.71554 6.8969 21.0747 -0.0 0.0 -0.0 12.3083 24.1192 -24.2884 2.38275 11.4213 -59.8457 2.11555 46.3363 -0.905418 75.7446 3.35722 8.35193 0.975128 -11.019 -10.8286 0.0 0.0 0.0 41.1031 15.1584 -5.17845 -12.9777 0.3132 1.96274 1.17826 1.18322 -0.173293 14.4682 -0.0 -0.0 -0.0 0.0 -0.0 -1.11106 5.51698 7.40195 -21.2988 -0.277941 -3.23786 38.1868 18.2709 5.11688 1.2086 -0.0 -0.0 0.0 0.0 0.0 
2981.89998834 665.673 -1696.26231083 -25.6780235266 58.1279078517 22.0570997058 4.23528 -0.0960316 0.726717 4.23557 -0.142079 0.719134 4.2336 -0.239575 0.692781 4.23295 -0.12716 0.721921 -8.27905 11.3968 7.51845 -8.17091 16.0408 9.931 -0.0 0.0 -0.0 1.35181 23.4473 4.56408 -23.23 -17.9045 63.4777 0.878153 -23.5093 0.182734 -37.653 -2.70509 3.88706 2.25019 10.6068 19.1436 -0.0 0.0 -0.0 12.092 22.3685 -23.9572 -0.102663 10.9257 -61.0331 2.12165 46.4188 -0.909839 75.0867 3.28456 8.30891 0.857316 -11.9714 -10.4196 0.0 0.0 0.0 38.7022 15.629 -4.13898 -16.1312 0.321643 2.44644 6.38209 0.239824 -0.926626 14.8963 -0.0 -0.0 -0.0 0.0 -0.0 0.264167 5.98247 8.20036 -28.0073 -0.115217 -4.25392 37.8592 16.1936 5.01104 1.711 -0.0 -0.0 0.0 0.0 0.0 
2981.94637813 665.673 -1696.59579703 -25.6099716277 58.0396168866 21.9769275566 4.23528 -0.0960316 0.726717 4.23557 -0.142079 0.719134 4.2336 -0.239575 0.692781 4.23295 -0.12716 0.721921 -8.27905 11.3968 7.51845 -8.17091 16.0408 9.931 -0.0 0.0 -0.0 1.35181 23.4473 4.56408 -23.23 -17.9045 63.4777 0.878153 -23.5093 0.182734 -37.653 -2.70509 3.88706 2.25019 10.6068 19.1436 -0.0 0.0 -0.0 12.092 22.3685 -23.9572 -0.102663 10.9257 -61.0331 2.12165 46.4188 -0.909839 75.0867 3.28456 8.30891 0.857316 -11.9714 -10.4196 0.0 0.0 0.0 38.7022 15.629 -4.13898 -16.1312 0.321643 2.44644 6.38209 0.239824 -0.926626 14.8963 -0.0 -0.0 -0.0 0.0 -0.0 0.264167 5.98247 8.20036 -28.0073 -0.115217 -4.25392 37.8592 16.1936 5.01104 1.711 -0.0 -0.0 0.0 0.0 0.0 
2966.0675867 670.014 -1703.60771295 -24.0738203534 57.7687461285 20.2479000879 4.02029 -0.0726282 0.764618 4.02061 -0.121134 0.758448 4.01881 -0.226985 0.733755 4.01808 -0.108257 0.760392 -9.13955 10.9501 7.7978 -9.03258 15.186 10.1986 -0.0 0.0 -0.0 1.55828 23.7457 4.86624 -20.3776 -18.7303 63.2817 0.860999 -23.0987 0.175948 -37.5782 -2.69737 3.88136 2.26371 10.3565 19.1505 -0.0 0.0 -0.0 12.1031 22.832 -23.941 -1.88781 9.34922 -61.4121 1.99135 44.6044 -0.816872 74.5754 3.22845 8.2749 0.726946 -12.6635 -9.83922 0.0 0.0 0.0 36.3142 15.7422 -3.59636 -16.6321 0.320533 2.52329 6.22437 1.24526 -0.902131 14.7665 -0.0 -0.0 -0.0 0.0 -0.0 1.92107 6.05854 8.45694 -32.6859 0.0681483 -4.9483 38.5854 14.6826 5.02878 1.8846 -0.0 -0.0 0.0 0.0 0.0 
2946.123569 670.63 -1710.85702242 -22.3888579912 58.6694135758 18.8865737684 3.92009 -0.178784 0.843004 3.92045 -0.232062 0.82992 3.91688 -0.348307 0.78823 3.91608 -0.219454 0.833342 -10.2618 10.7163 7.15578 -10.207 15.409 9.65334 -0.0 0.0 -0.0 1.77839 23.4336 5.14878 -16.9494 -20.9072 63.3084 0.775775 -21.0215 0.143934 -37.6849 -2.70839 3.88948 2.02521 12.8201 18.3692 -0.0 0.0 -0.0 11.8874 21.4282 -23.5674 -3.71924 7.43606 -62.1669 1.92276 43.6011 -0.76913 74.8965 3.26365 8.29631 0.553719 -16.1742 -10.0413 0.0 0.0 0.0 32.7169 16.3007 -2.76965 -16.5983 0.320629 2.5181 9.6713 -0.496283 -1.39116 14.4024 -0.0 -0.0 -0.0 0.0 -0.0 2.08149 11.614 6.44749 -38.1543 0.353542 -5.73816 37.4741 12.0474 4.85066 1.52005 -0.0 -0.0 0.0 0.0 0.0 
2924.87578111 678.676 -1716.69496684 -19.9684914187 58.2724004536 16.4030094643 3.66924 -0.180487 0.837304 3.6696 -0.233399 0.824123 3.66605 -0.352223 0.780767 3.66527 -0.2245 0.826592 -10.2075 11.3876 5.94625 -10.2202 17.4837 8.65805 -0.0 0.0 -0.0 2.38151 23.8205 5.99352 -14.5662 -21.8215 62.292 0.764633 -20.7455 0.139963 -37.6272 -2.70242 3.88509 1.60742 13.2816 15.7597 -0.0 0.0 -0.0 11.6948 20.5676 -23.1938 -5.63406 6.02517 -63.2894 1.86325 42.7028 -0.728433 73.6299 3.12547 8.2107 0.378471 -16.1807 -8.95082 0.0 0.0 0.0 28.4322 15.7812 -1.90376 -15.8357 0.321982 2.4011 11.567 -3.11557 -1.66501 13.5033 -0.0 -0.0 -0.0 0.0 -0.0 3.1299 11.3601 7.29971 -43.4239 0.698835 -6.47082 38.6789 11.0793 4.9362 1.30956 -0.0 -0.0 0.0 0.0 0.0 
2900.63869915 679.796 -1722.26718698 -16.4671677095 59.139452223 13.2415902834 3.32938 0.16756 0.798053 3.32973 0.11644 0.807097 3.33124 -0.00842207 0.815409 3.33033 0.120458 0.806507 -12.6584 11.0142 5.43692 -12.7643 17.5132 8.43675 -0.0 0.0 -0.0 2.64992 23.8708 6.36194 -13.5576 -23.1291 61.7441 0.887646 -23.7355 0.186538 -37.2879 -2.66746 3.85915 1.28635 14.7344 14.173 -0.0 0.0 -0.0 11.4054 18.2642 -22.6883 -7.36744 4.69358 -63.8418 1.67996 39.764 -0.607579 73.9152 3.15643 8.23026 0.475007 -18.1473 -10.2731 0.0 0.0 0.0 24.0818 13.8165 -0.78369 -16.5484 0.320765 2.51045 15.8617 -2.67454 -2.24001 12.1061 -0.0 -0.0 -0.0 0.0 -0.0 4.51898 14.0913 6.84615 -51.8926 1.39096 -7.57414 38.7621 7.91385 4.87354 1.32514 -0.0 -0.0 0.0 0.0 0.0 
2899.28475253 679.796 -1714.6368644 -17.2565901501 60.6495135656 14.154024513 3.32938 0.16756 0.798053 3.32973 0.11644 0.807097 3.33124 -0.00842207 0.815409 3.33033 0.120458 0.806507 -12.6584 11.0142 5.43692 -12.7643 17.5132 8.43675 -0.0 0.0 -0.0 2.64992 23.8708 6.36194 -13.5576 -23.1291 61.7441 0.887646 -23.7355 0.186538 -37.2879 -2.66746 3.85915 1.28635 14.7344 14.173 -0.0 0.0 -0.0 11.4054 18.2642 -22.6883 -7.36744 4.69358 -63.8418 1.67996 39.764 -0.607579 73.9152 3.15643 8.23026 0.475007 -18.1473 -10.2731 0.0 0.0 0.0 24.0818 13.8165 -0.78369 -16.5484 0.320765 2.51045 15.8617 -2.67454 -2.24001 12.1061 -0.0 -0.0 -0.0 0.0 -0.0 4.51898 14.0913 6.84615 -51.8926 1.39096 -7.57414 38.7621 7.91385 4.87354 1.32514 -0.0 -0.0 0.0 0.0 0.0 
2882.57162534 682.297 -1706.50098172 -16.3592367497 62.9572580009 13.6964073742 3.11275 0.0815336 0.762632 3.11307 0.0328416 0.766275 3.1134 -0.0876952 0.761948 3.11259 0.0337373 0.766236 -12.1849 11.3674 4.76793 -12.3172 18.5395 7.8359 -0.0 0.0 -0.0 3.25571 22.6614 7.17366 -12.5116 -24.2403 60.4129 0.952883 -25.2683 0.213596 -37.2043 -2.65886 3.85272 1.20085 14.1038 13.4033 -0.0 0.0 -0.0 11.2516 17.0654 -22.4054 -9.1542 4.63671 -63.8984 1.55946 37.6838 -0.532186 73.6791 3.1308 8.21409 0.429275 -20.5482 -10.8573 0.0 0.0 0.0 21.4465 15.207 -0.0419971 -16.583 0.320672 2.51576 17.4884 -3.24619 -2.45629 10.1812 -0.0 -0.0 -0.0 0.0 -0.0 6.05762 16.7461 5.76814 -56.5972 1.84397 -8.14 38.3866 6.75291 4.81841 0.914784 -0.0 -0.0 0.0 0.0 0.0 
